<svg width="72" height="72" viewBox="0 0 72 72" fill="none" xmlns="http://www.w3.org/2000/svg">
<rect width="72" height="72" rx="36" fill="#FAFCF4"/>
<g clip-path="url(#clip0)">
<path d="M47.132 35.166V50.666H23.876V35.166H23.23C22.9754 35.1664 22.7232 35.1165 22.4879 35.0193C22.2526 34.922 22.0388 34.7793 21.8587 34.5993C21.6787 34.4192 21.536 34.2054 21.4387 33.9701C21.3415 33.7348 21.2916 33.4826 21.292 33.228V32.304C21.2919 31.9915 21.3677 31.6837 21.5128 31.4069C21.6578 31.1301 21.8679 30.8927 22.125 30.715L33.425 22.892C34.0467 22.4965 34.7682 22.2864 35.505 22.2864C36.2418 22.2864 36.9633 22.4965 37.585 22.892L48.885 30.715C49.1421 30.8927 49.3521 31.1301 49.4972 31.4069C49.6423 31.6837 49.7181 31.9915 49.718 32.304V33.228C49.7184 33.4826 49.6685 33.7348 49.5713 33.9701C49.474 34.2054 49.3313 34.4192 49.1512 34.5993C48.9712 34.7793 48.7574 34.922 48.5221 35.0193C48.2868 35.1165 48.0346 35.1664 47.78 35.166H47.132Z" fill="#58A75D"/>
<path d="M49.618 29.652L38.278 21.803C37.4407 21.2739 36.4695 20.9954 35.4791 21.0002C34.4886 21.0049 33.5202 21.2929 32.688 21.83L21.388 29.653C20.9595 29.9497 20.6094 30.3459 20.3677 30.8076C20.1259 31.2694 19.9998 31.7828 20 32.304V33.23C20.0011 33.9742 20.2586 34.6954 20.7293 35.2719C21.2 35.8484 21.855 36.245 22.584 36.395V50.669C22.584 51.0117 22.7201 51.3403 22.9624 51.5826C23.2047 51.8249 23.5333 51.961 23.876 51.961H47.132C47.4747 51.961 47.8033 51.8249 48.0456 51.5826C48.2879 51.3403 48.424 51.0117 48.424 50.669V36.392C49.1525 36.2421 49.8071 35.8459 50.2777 35.27C50.7484 34.6941 51.0062 33.9737 51.008 33.23V32.306C51.0081 31.7842 50.8818 31.2701 50.6397 30.8079C50.3976 30.3457 50.047 29.949 49.618 29.652ZM48.424 33.23C48.4237 33.4012 48.3556 33.5654 48.2345 33.6865C48.1134 33.8076 47.9492 33.8757 47.778 33.876H44.548C44.2053 33.876 43.8767 34.0121 43.6344 34.2544C43.3921 34.4967 43.256 34.8253 43.256 35.168C43.256 35.5107 43.3921 35.8393 43.6344 36.0816C43.8767 36.3239 44.2053 36.46 44.548 36.46H45.84V49.38H25.168V36.457H26.46C26.8027 36.457 27.1313 36.3209 27.3736 36.0786C27.6159 35.8363 27.752 35.5077 27.752 35.165C27.752 34.8223 27.6159 34.4937 27.3736 34.2514C27.1313 34.0091 26.8027 33.873 26.46 33.873H23.23C23.0588 33.8727 22.8946 33.8046 22.7735 33.6835C22.6524 33.5624 22.5843 33.3982 22.584 33.227V32.303C22.5841 32.1994 22.6094 32.0975 22.6576 32.0058C22.7059 31.9142 22.7757 31.8357 22.861 31.777L34.119 23.977C34.5256 23.7165 34.9973 23.5758 35.4801 23.571C35.963 23.5662 36.4374 23.6976 36.849 23.95L48.149 31.773C48.234 31.8319 48.3035 31.9105 48.3516 32.0021C48.3997 32.0937 48.4249 32.1956 48.425 32.299L48.424 33.23Z" fill="black"/>
<path d="M35.504 36.46C35.1374 36.4597 34.7785 36.3555 34.4688 36.1594C34.1592 35.9633 33.9115 35.6834 33.7544 35.3522C33.5974 35.0211 33.5375 34.6521 33.5817 34.2883C33.626 33.9244 33.7724 33.5806 34.0042 33.2966C34.2359 33.0127 34.5435 32.8003 34.8911 32.684C35.2387 32.5678 35.6121 32.5525 35.9681 32.64C36.324 32.7275 36.6478 32.9141 36.902 33.1781C37.1561 33.4422 37.3302 33.773 37.404 34.132C37.4375 34.2983 37.5035 34.4564 37.5981 34.5972C37.6928 34.738 37.8142 34.8588 37.9556 34.9527C38.0969 35.0466 38.2553 35.1117 38.4218 35.1444C38.5883 35.177 38.7596 35.1766 38.926 35.143C39.0923 35.1095 39.2504 35.0435 39.3912 34.9488C39.532 34.8542 39.6528 34.7327 39.7467 34.5914C39.8406 34.4501 39.9057 34.2916 39.9383 34.1251C39.971 33.9586 39.9705 33.7873 39.937 33.621C39.7713 32.821 39.3918 32.0808 38.8388 31.4792C38.2859 30.8777 37.5803 30.4374 36.797 30.205V29.354C36.797 29.0114 36.6608 28.6827 36.4185 28.4404C36.1762 28.1981 35.8476 28.062 35.505 28.062C35.1623 28.062 34.8337 28.1981 34.5914 28.4404C34.3491 28.6827 34.213 29.0114 34.213 29.354V30.191C33.1727 30.5016 32.2789 31.1762 31.695 32.0915C31.1111 33.0068 30.8761 34.1016 31.0329 35.1759C31.1897 36.2502 31.7278 37.2322 32.5489 37.9424C33.37 38.6526 34.4193 39.0436 35.505 39.044C35.8715 39.0443 36.2304 39.1486 36.5401 39.3447C36.8497 39.5407 37.0975 39.8206 37.2545 40.1518C37.4115 40.483 37.4714 40.8519 37.4272 41.2157C37.383 41.5796 37.2365 41.9234 37.0047 42.2074C36.773 42.4914 36.4655 42.7038 36.1178 42.82C35.7702 42.9362 35.3968 42.9515 35.0409 42.864C34.6849 42.7766 34.3611 42.59 34.1069 42.3259C33.8528 42.0618 33.6787 41.731 33.605 41.372C33.5714 41.2057 33.5054 41.0476 33.4108 40.9068C33.3161 40.766 33.1947 40.6452 33.0534 40.5513C32.912 40.4574 32.7536 40.3923 32.5871 40.3596C32.4206 40.327 32.2493 40.3275 32.083 40.361C31.9166 40.3946 31.7586 40.4605 31.6177 40.5552C31.4769 40.6498 31.3561 40.7713 31.2622 40.9126C31.1684 41.054 31.1032 41.2124 31.0706 41.3789C31.0379 41.5454 31.0384 41.7167 31.072 41.883C31.2376 42.6831 31.6171 43.4233 32.1701 44.0248C32.723 44.6263 33.4287 45.0667 34.212 45.299V46.15C34.212 46.4927 34.3481 46.8213 34.5904 47.0636C34.8327 47.3059 35.1613 47.442 35.504 47.442C35.8466 47.442 36.1753 47.3059 36.4175 47.0636C36.6598 46.8213 36.796 46.4927 36.796 46.15V45.313C37.8362 45.0024 38.73 44.3278 39.3139 43.4125C39.8978 42.4972 40.1328 41.4024 39.976 40.3281C39.8193 39.2539 39.2811 38.2719 38.46 37.5616C37.6389 36.8514 36.5896 36.4604 35.504 36.46Z" fill="black"/>
</g>
<defs>
<clipPath id="clip0">
<rect width="31.008" height="30.962" fill="white" transform="translate(20 21)"/>
</clipPath>
</defs>
</svg>
