<svg width="72" height="72" viewBox="0 0 72 72" fill="none" xmlns="http://www.w3.org/2000/svg">
<rect width="72" height="72" rx="36" fill="#FAFCF4"/>
<g clip-path="url(#clip0)">
<path d="M40.8261 29.08L40.4811 28.766L36.1201 24.844L31.7581 28.769L31.4131 29.083V35.829C31.4141 36.2448 31.5798 36.6433 31.8738 36.9373C32.1678 37.2313 32.5663 37.3969 32.9821 37.398H39.2571C39.6729 37.3969 40.0714 37.2313 40.3654 36.9373C40.6594 36.6433 40.825 36.2448 40.8261 35.829V29.08ZM36.1191 18.569C37.7673 18.5686 39.3994 18.8929 40.9222 19.5235C42.4451 20.1541 43.8287 21.0785 44.9942 22.2439C46.1596 23.4094 47.084 24.793 47.7146 26.3159C48.3451 27.8387 48.6695 29.4708 48.6691 31.119C48.6691 36.069 42.2691 47.058 38.6131 51.851C38.3198 52.234 37.9422 52.5443 37.5096 52.7579C37.077 52.9715 36.601 53.0826 36.1186 53.0826C35.6362 53.0826 35.1602 52.9715 34.7276 52.7579C34.295 52.5443 33.9174 52.234 33.6241 51.851C29.9691 47.058 23.5691 36.069 23.5691 31.119C23.5687 29.4708 23.893 27.8387 24.5236 26.3159C25.1542 24.793 26.0786 23.4094 27.244 22.2439C28.4095 21.0785 29.7931 20.1541 31.3159 19.5235C32.8388 18.8929 34.4709 18.5686 36.1191 18.569Z" fill="#EEF7EC"/>
<path d="M40.8261 29.08V35.826C40.825 36.2418 40.6594 36.6403 40.3654 36.9343C40.0714 37.2283 39.6729 37.3939 39.2571 37.395H32.9821C32.5663 37.3939 32.1678 37.2283 31.8738 36.9343C31.5798 36.6403 31.4141 36.2418 31.4131 35.826V29.08L31.7581 28.766L36.1191 24.844L40.4801 28.766L40.8261 29.08Z" fill="#58A75D"/>
<path d="M36.119 17C32.3757 17.0042 28.7869 18.4931 26.14 21.14C23.4931 23.7869 22.0042 27.3757 22 31.119C22 36.291 27.776 46.338 31.438 51.513H28.275C27.8589 51.513 27.4598 51.6783 27.1656 51.9725C26.8713 52.2668 26.706 52.6659 26.706 53.082C26.706 53.4981 26.8713 53.8972 27.1656 54.1915C27.4598 54.4857 27.8589 54.651 28.275 54.651H43.963C44.3791 54.651 44.7782 54.4857 45.0724 54.1915C45.3667 53.8972 45.532 53.4981 45.532 53.082C45.532 52.6659 45.3667 52.2668 45.0724 51.9725C44.7782 51.6783 44.3791 51.513 43.963 51.513H40.8C44.462 46.337 50.238 36.29 50.238 31.119C50.2338 27.3757 48.7449 23.7869 46.098 21.14C43.4511 18.4931 39.8623 17.0042 36.119 17ZM36.119 20.138C39.0303 20.1414 41.8214 21.2995 43.8799 23.3581C45.9385 25.4167 47.0966 28.2077 47.1 31.119C47.1 35.337 41.241 45.819 37.365 50.9C37.2129 51.0832 37.0223 51.2305 36.8068 51.3317C36.5912 51.4329 36.3561 51.4853 36.118 51.4853C35.8799 51.4853 35.6448 51.4329 35.4292 51.3317C35.2137 51.2305 35.0231 51.0832 34.871 50.9C30.996 45.819 25.137 35.338 25.137 31.12C25.1402 28.2084 26.2982 25.4169 28.3571 23.3581C30.4159 21.2992 33.2074 20.1412 36.119 20.138Z" fill="black"/>
<path d="M42.394 35.825V32.601L42.913 33.068C43.0661 33.2059 43.2448 33.3123 43.439 33.3811C43.6331 33.4499 43.839 33.4798 44.0447 33.4691C44.2504 33.4584 44.452 33.4072 44.638 33.3186C44.824 33.23 44.9906 33.1056 45.1285 32.9525C45.2664 32.7994 45.3728 32.6207 45.4416 32.4265C45.5104 32.2324 45.5403 32.0265 45.5296 31.8208C45.5189 31.6151 45.4677 31.4135 45.3791 31.2275C45.2905 31.0416 45.1661 30.8749 45.013 30.737L37.169 23.677C36.8809 23.4175 36.5068 23.2739 36.119 23.2739C35.7312 23.2739 35.3572 23.4175 35.069 23.677L27.225 30.737C27.072 30.8749 26.9476 31.0416 26.8589 31.2275C26.7703 31.4135 26.7192 31.6151 26.7084 31.8208C26.6977 32.0265 26.7276 32.2324 26.7964 32.4265C26.8652 32.6207 26.9716 32.7994 27.1095 32.9525C27.2474 33.1056 27.4141 33.23 27.6001 33.3186C27.786 33.4072 27.9876 33.4584 28.1934 33.4691C28.3991 33.4798 28.6049 33.4499 28.7991 33.3811C28.9933 33.3123 29.172 33.2059 29.325 33.068L29.843 32.601V35.825C29.8438 36.657 30.1747 37.4547 30.763 38.043C31.3513 38.6313 32.149 38.9622 32.981 38.963H39.256C40.088 38.9622 40.8857 38.6313 41.4741 38.043C42.0624 37.4547 42.3932 36.657 42.394 35.825ZM32.981 29.775L36.119 26.951L39.257 29.775V35.823H32.981V29.775Z" fill="black"/>
</g>
<defs>
<clipPath id="clip0">
<rect width="28.238" height="37.651" fill="white" transform="translate(22 17)"/>
</clipPath>
</defs>
</svg>

